<?xml version="1.0" encoding="UTF-8"?>
<svg width="60px" height="60px" viewBox="0 0 60 60" version="1.1" xmlns="http://www.w3.org/2000/svg" xmlns:xlink="http://www.w3.org/1999/xlink">
    <!-- Generator: Sketch 56.2 (81672) - https://sketch.com -->
    <title>printer-panda-iso</title>
    <desc>Created with Sketch.</desc>
    <defs>
        <polygon id="path-1" points="0 0.11775 59.13225 0.11775 59.13225 59.25 0 59.25"></polygon>
    </defs>
    <g id="Printer-Panda-Catalog" stroke="none" stroke-width="1" fill="none" fill-rule="evenodd">
        <g id="Catalog-Desktop" transform="translate(-610.000000, -1256.000000)">
            <g id="Footer" transform="translate(0.000000, 1240.000000)">
                <g id="printer-panda-iso" transform="translate(610.000000, 16.000000)">
                    <g id="Group-3" transform="translate(0.000000, 0.632475)">
                        <mask id="mask-2" fill="white">
                            <use xlink:href="#path-1"></use>
                        </mask>
                        <g id="Clip-2"></g>
                        <path d="M29.57745,59.25015 C13.2447,59.25015 -0.0003,46.00515 -0.0003,29.6949 C-0.0003,22.6824 2.4432,16.24665 6.51495,11.1909 C6.65145,11.02065 6.78645,10.85115 6.9222,10.6929 C5.91495,9.7659 5.2932,8.44215 5.2932,6.96015 C5.2932,4.1439 7.5897,1.8369 10.4172,1.8369 C12.20445,1.8369 13.77645,2.75265 14.6922,4.1439 C14.8737,4.04265 15.0432,3.94065 15.22395,3.83865 C19.46595,1.4634 24.36345,0.11715 29.57745,0.11715 C34.7802,0.11715 39.68895,1.4634 43.93095,3.8499 C44.1117,3.9519 44.2812,4.0539 44.4627,4.1559 C45.35595,2.76465 46.9392,1.8369 48.72645,1.8369 C51.5547,1.8369 53.85045,4.1439 53.85045,6.96015 C53.85045,8.44215 53.22795,9.7659 52.2102,10.70415 C52.3572,10.8744 52.4937,11.0439 52.61745,11.2134 C56.71245,16.2579 59.1327,22.7049 59.1327,29.6949 C59.1327,46.00515 45.89895,59.25015 29.57745,59.25015" id="Fill-1" fill="#FEFEFE" mask="url(#mask-2)"></path>
                    </g>
                    <path d="M44.208375,36.007875 C43.889625,34.344375 42.790125,33.114375 41.488125,33.114375 C41.271375,33.114375 41.039625,33.157875 40.822875,33.229875 C40.765125,32.926125 40.721625,32.593125 40.721625,32.245875 C40.721625,30.105375 41.980125,28.354125 43.542375,28.354125 C45.076125,28.354125 46.335375,30.105375 46.335375,32.245875 C46.335375,34.069125 45.423375,35.602875 44.208375,36.007875 M50.848875,25.084875 C46.175625,15.724875 38.956875,20.773875 35.802375,25.186125 C32.662875,29.599125 34.327125,36.181125 39.505875,39.856125 C44.686125,43.545375 51.442125,42.952125 54.581625,38.524875 C57.721125,34.112625 53.698875,30.770625 50.848875,25.084875" id="Fill-4" fill="#231F20"></path>
                    <path d="M18.34065,33.230175 C18.1239,33.157425 17.89215,33.113925 17.66115,33.113925 C16.3584,33.113925 15.27315,34.343925 14.95515,36.008175 C13.7259,35.603175 12.8139,34.069425 12.8139,32.246175 C12.8139,30.104925 14.07315,28.354425 15.6204,28.354425 C17.16915,28.354425 18.4269,30.104925 18.4269,32.246175 C18.4269,32.593425 18.3984,32.926425 18.34065,33.230175 M23.34615,25.186425 C20.20665,20.773425 12.98715,15.724425 8.3004,25.085175 C5.46465,30.770925 1.44315,34.112175 4.5819,38.525175 C7.7214,42.951675 14.47815,43.544925 19.6569,39.855675 C24.8364,36.181425 26.48565,29.598675 23.34615,25.186425" id="Fill-6" fill="#231F20"></path>
                    <path d="M50.47275,7.5939 C50.47275,8.10015 50.256,8.5629 49.908,8.86665 C49.64775,8.6214 49.3875,8.3754 49.113,8.14365 C48.85275,7.89765 48.5625,7.6659 48.288,7.44915 C47.98425,7.1889 47.6805,6.9429 47.3625,6.6969 C47.3475,6.6969 47.3325,6.68265 47.319,6.66765 C47.304,6.66765 47.304,6.6534 47.28975,6.6534 C47.5935,6.17565 48.129,5.85765 48.7365,5.85765 C49.69125,5.85765 50.47275,6.63915 50.47275,7.5939" id="Fill-8" fill="#231F20"></path>
                    <path d="M11.8734,6.63885 L11.8734,6.65385 C11.8014,6.6966 11.7294,6.75435 11.65665,6.8121 C11.3529,7.0296 11.0634,7.26135 10.7739,7.50735 C10.4124,7.7961 10.06515,8.09985 9.7329,8.40435 C9.5739,8.54835 9.41415,8.6931 9.25515,8.8671 L9.24015,8.8671 C8.8929,8.54835 8.69115,8.09985 8.69115,7.5936 C8.69115,6.63885 9.45765,5.85735 10.42665,5.85735 C11.0349,5.85735 11.5704,6.1761 11.8734,6.63885" id="Fill-10" fill="#231F20"></path>
                    <path d="M37.02765,45.13785 C35.5554,46.8621 32.7369,47.8971 29.4984,47.8971 C26.5629,47.8971 23.75265,46.85385 22.16265,45.1716 C21.84315,44.83485 21.85965,44.3136 22.1964,43.9941 C22.52415,43.67385 23.0544,43.6911 23.3739,44.01885 C24.50115,45.20535 26.5119,46.02135 28.6659,46.18935 L28.6659,42.81585 L26.8899,41.0076 C26.35215,40.45185 26.73915,39.5271 27.5124,39.5271 L29.4984,39.5271 L31.48365,39.5271 C32.2494,39.5271 32.64465,40.45185 32.10615,41.0076 L30.3309,42.81585 L30.3309,46.18935 C32.70315,46.0461 34.73115,45.24735 35.7579,44.0526 C36.0519,43.7076 36.58215,43.6656 36.9354,43.96035 C37.28865,44.2626 37.3224,44.79285 37.02765,45.13785" id="Fill-12" fill="#231F20"></path>
                </g>
            </g>
        </g>
    </g>
</svg>