<?xml version="1.0" encoding="UTF-8"?>
<svg width="98px" height="40px" viewBox="0 0 98 40" version="1.1" xmlns="http://www.w3.org/2000/svg" xmlns:xlink="http://www.w3.org/1999/xlink">
    <!-- Generator: Sketch 56.2 (81672) - https://sketch.com -->
    <title>printer-panda-logo</title>
    <desc>Created with Sketch.</desc>
    <defs>
        <polygon id="path-1" points="0 0.134481019 23.177925 0.134481019 23.177925 34.7599746 0 34.7599746"></polygon>
        <polygon id="path-3" points="0.160185455 0.185331646 14.6790636 0.185331646 14.6790636 18.7544962 0.160185455 18.7544962"></polygon>
        <polygon id="path-5" points="0 39.9 97.2 39.9 97.2 0 0 0"></polygon>
    </defs>
    <g id="Printer-Panda-Catalog" stroke="none" stroke-width="1" fill="none" fill-rule="evenodd">
        <g id="Catalog-Mobile" transform="translate(-138.000000, -20.000000)">
            <g id="Header">
                <g id="printer-panda-logo" transform="translate(138.080000, 20.000000)">
                    <path d="M23.3160573,8.7 C23.6241015,9.76972712 23.7899365,10.8996573 23.7899365,12.0673267 C23.7899365,18.8608352 18.2024329,24.3860364 11.3323204,24.3860364 C9.71486127,24.3860364 8.1060346,24.0737893 6.61760868,23.4758024 L6.61760868,28.9740471 C6.61760868,31.4545021 5.28956566,33.6312463 3.3,34.8487854 L3.3,39.9 C6.73800944,39.9 9.52767217,37.1418921 9.52767217,33.7422176 L9.52767217,27.0655209 C11.1610333,27.9204939 13.0215657,28.4048139 15.0002272,28.4048139 C21.4605227,28.4048139 26.7,23.2237584 26.7,16.8354972 C26.7,13.664055 25.4092131,10.788686 23.3160573,8.7" id="Fill-1" fill="#FEFEFE"></path>
                    <path d="M14.3903716,12.7959876 C14.32411,12.5293669 14.0939925,12.3323507 13.8217553,12.3323507 C13.77604,12.3323507 13.7277564,12.3394292 13.6820411,12.3508333 C13.670227,12.3024641 13.6609812,12.2489826 13.6609812,12.193535 C13.6609812,11.8506246 13.9244863,11.5702403 14.251171,11.5702403 C14.5722055,11.5702403 14.835197,11.8506246 14.835197,12.193535 C14.835197,12.4853234 14.6446309,12.731102 14.3903716,12.7959876 M15.7798088,11.0464369 C14.802323,9.54699057 13.2916631,10.3558972 12.6321299,11.06256 C11.9751649,11.769616 12.3234231,12.8235148 13.4067219,13.4122038 C14.4905343,14.0032523 15.9035997,13.9080868 16.5610784,13.1990645 C17.2175297,12.4924018 16.3761625,11.956801 15.7798088,11.0464369" id="Fill-3" fill="#FEFEFE"></path>
                    <path d="M9.41909791,12.3508333 C9.37387623,12.3394292 9.32505737,12.3323507 9.27726628,12.3323507 C9.00439457,12.3323507 8.77725842,12.5293669 8.71045367,12.7959876 C8.45299844,12.731102 8.26234796,12.4853234 8.26234796,12.193535 C8.26234796,11.8506246 8.52596978,11.5702403 8.85022976,11.5702403 C9.17397586,11.5702403 9.43759769,11.8506246 9.43759769,12.193535 C9.43759769,12.2489826 9.43091721,12.3024641 9.41909791,12.3508333 M10.4669047,11.06256 C9.81016264,10.3558972 8.29883363,9.54699057 7.31783156,11.0464369 C6.72429704,11.956801 5.8820433,12.4920086 6.53929927,13.1990645 C7.19655524,13.9080868 8.61076042,14.0032523 9.69453903,13.4122038 C10.7788315,12.8235148 11.1241607,11.7692227 10.4669047,11.06256" id="Fill-5" fill="#FEFEFE"></path>
                    <path d="M8.4264,7.4826 L8.4264,7.479 L8.3736,7.521 C8.391,7.5072 8.409,7.4934 8.4264,7.4826" id="Fill-7" fill="#FEFEFE"></path>
                    <path d="M15,7.54600326 C15,7.64681892 14.9592593,7.73931485 14.8939815,7.8 C14.8444444,7.75057096 14.7958333,7.70163132 14.7435185,7.65562806 C14.6944444,7.60668842 14.6402778,7.56019576 14.587963,7.51663948 C14.5305556,7.46525285 14.4736111,7.41582382 14.4134259,7.36737357 C14.4111111,7.36737357 14.4083333,7.36443719 14.4055556,7.36150082 C14.4027778,7.36150082 14.4027778,7.35856444 14.4,7.35856444 C14.4569444,7.26313214 14.5583333,7.2 14.6726852,7.2 C14.8527778,7.2 15,7.35562806 15,7.54600326" id="Fill-9" fill="#FEFEFE"></path>
                    <path d="M8.7,7.3557551 L8.7,7.35869388 C8.68657407,7.36702041 8.67268519,7.37877551 8.65925926,7.39004082 C8.60185185,7.43314286 8.54722222,7.47967347 8.49259259,7.52914286 C8.42453704,7.58644898 8.35925926,7.64718367 8.2962963,7.70791837 C8.2662037,7.73632653 8.23611111,7.76522449 8.20648148,7.8 L8.2037037,7.8 C8.13796296,7.73632653 8.1,7.64718367 8.1,7.54628571 C8.1,7.3557551 8.24444444,7.2 8.42731481,7.2 C8.54166667,7.2 8.64259259,7.26318367 8.7,7.3557551" id="Fill-11" fill="#FEFEFE"></path>
                    <path d="M16.5,7.81784387 C16.5,8.16810409 16.3595088,8.47776952 16.1379649,8.7 C16.1129123,8.66408922 16.0854035,8.62869888 16.0564211,8.59226766 C16.2602807,8.3929368 16.3845614,8.11241636 16.3845614,7.79858736 C16.3845614,7.20163569 15.9247719,6.71241636 15.3593684,6.71241636 C15.0017544,6.71241636 14.6849123,6.90914498 14.505614,7.20371747 C14.4697544,7.18237918 14.4358596,7.16104089 14.4,7.13918216 C14.6014035,6.81546468 14.9496842,6.6 15.3475789,6.6 C15.9792982,6.6 16.5,7.1464684 16.5,7.81784387" id="Fill-13" fill="#FEFEFE"></path>
                    <path d="M9.3,7.13777943 C9.26361508,7.15968703 9.22919691,7.18107303 9.19330368,7.20298063 C9.009904,6.90722802 8.6952236,6.71266766 8.33727464,6.71266766 C7.77084992,6.71266766 7.31112152,7.20298063 7.31112152,7.80074516 C7.31112152,8.11579732 7.43551861,8.39694486 7.63711075,8.59411326 C7.60957621,8.62749627 7.58302505,8.66400894 7.55549052,8.7 C7.33816436,8.47883756 7.2,8.164307 7.2,7.82056632 C7.2,7.14769001 7.70988059,6.6 8.34612503,6.6 C8.73996722,6.6 9.09594943,6.81125186 9.3,7.13777943" id="Fill-15" fill="#FEFEFE"></path>
                    <path d="M13.1613691,14.8054268 C12.8724212,15.114315 12.3195675,15.3 11.6843638,15.3 C11.1083943,15.3 10.557467,15.112995 10.2449217,14.811587 C10.1823163,14.7513054 10.1856873,14.6575829 10.2516638,14.6003813 C10.3161955,14.5427398 10.4202167,14.5458199 10.4828221,14.6047815 C10.7038672,14.8173071 11.0987627,14.963391 11.5211082,14.9941918 L11.5211082,14.3891757 L11.1724444,14.0648871 C11.0669784,13.9658844 11.143068,13.8 11.2947657,13.8 L11.6843638,13.8 L12.0734803,13.8 C12.2242147,13.8 12.3012675,13.9658844 12.1958015,14.0648871 L11.8476193,14.3891757 L11.8476193,14.9941918 C12.3128254,14.9682312 12.7106104,14.8252273 12.9119107,14.6109416 C12.9701819,14.5489 13.0737216,14.5414198 13.143069,14.5946612 C13.211935,14.6487826 13.2186771,14.7433852 13.1613691,14.8054268" id="Fill-17" fill="#FEFEFE"></path>
                    <g id="Group-21">
                        <mask id="mask-2" fill="white">
                            <use xlink:href="#path-1"></use>
                        </mask>
                        <g id="Clip-20"></g>
                        <path d="M11.590875,17.109004 C8.597475,17.109004 6.169725,14.6852913 6.169725,11.7019148 C6.169725,10.4186407 6.617475,9.24137031 7.363575,8.31653258 C7.388775,8.28509079 7.413525,8.25409817 7.438275,8.22535139 C7.253775,8.05556574 7.139925,7.81346397 7.139925,7.54216626 C7.139925,7.02741927 7.560675,6.60475181 8.079075,6.60475181 C8.406675,6.60475181 8.694675,6.77229162 8.862975,7.02741927 C8.895825,7.0085542 8.926875,6.9901383 8.960175,6.97127322 C9.737775,6.53692738 10.635075,6.29033393 11.590875,6.29033393 C12.544425,6.29033393 13.444425,6.53692738 14.222025,6.97351906 C14.254875,6.99238414 14.285925,7.01080004 14.318775,7.02921595 C14.483025,6.77453746 14.773275,6.60475181 15.100875,6.60475181 C15.618825,6.60475181 16.040025,7.02741927 16.040025,7.54216626 C16.040025,7.81346397 15.926175,8.05556574 15.739425,8.22759723 C15.765975,8.25858985 15.791175,8.28913331 15.814125,8.32057509 C16.564725,9.24316699 17.007975,10.4226832 17.007975,11.7019148 C17.007975,14.6852913 14.582475,17.109004 11.590875,17.109004 M23.053725,9.99013403 C22.997475,9.62001927 22.922775,9.25619287 22.835475,8.89595981 C22.765275,8.6246621 22.692825,8.35965274 22.603725,8.0986859 C22.518225,7.83592239 22.422825,7.57944723 22.321575,7.32521792 C22.317525,7.32297208 22.317525,7.32117541 22.317525,7.32117541 C22.242825,7.14105888 22.165875,6.96318819 22.084875,6.78891085 C21.962925,6.52839318 21.830175,6.27191802 21.688875,6.0235279 L21.687525,6.02128206 C21.260025,5.26847582 20.754225,4.5709173 20.177775,3.93758985 L20.177775,3.93579318 C20.047275,3.7947543 19.914525,3.65641044 19.781775,3.52165992 C17.686125,1.42763684 14.789475,0.134481019 11.588625,0.134481019 C8.392275,0.134481019 5.491575,1.42763684 3.397725,3.52165992 C2.610225,4.30815378 1.934325,5.20604141 1.401075,6.1870252 C1.310175,6.35052249 1.225125,6.51806231 1.144125,6.68560212 C0.412425,8.2024438 -0.000225,9.90119869 -0.000225,11.7019148 L-0.000225,34.7599746 L0.004275,34.7599746 C0.642825,34.7599746 1.260675,34.6629542 1.838925,34.4828377 C2.029725,34.4208524 2.218275,34.3525788 2.400525,34.2762202 C2.494125,34.2366934 2.587275,34.1953699 2.676375,34.1535972 C2.854575,34.0669077 3.029175,33.971684 3.198825,33.8683753 C3.348225,33.7771941 3.495375,33.6801737 3.636225,33.5764158 C4.052925,33.2718797 4.432275,32.9143416 4.759875,32.5190734 C4.871925,32.3865688 4.975425,32.2477757 5.073075,32.1053893 C5.763375,31.1118288 6.169725,29.9053625 6.169725,28.6041217 L6.169725,21.9281317 L6.171525,21.9281317 L6.171525,21.9303776 C6.273675,21.9842778 6.372675,22.0336863 6.474375,22.083544 C8.019225,22.8408419 9.752175,23.2671027 11.588625,23.2671027 C14.789475,23.2671027 17.686125,21.9739469 19.781775,19.8794747 C20.175975,19.4886982 20.540925,19.0664799 20.874375,18.6191081 C21.150225,18.2489934 21.408975,17.8622594 21.641625,17.458457 C21.734775,17.2949597 21.821625,17.1337083 21.908925,16.9684143 C22.079025,16.6346822 22.236525,16.2937633 22.373325,15.9416153 C22.441725,15.7659905 22.508325,15.5921623 22.569975,15.4120458 C22.599225,15.3213138 22.628025,15.2319293 22.657275,15.1389514 C22.713525,14.9588349 22.765275,14.7769217 22.812525,14.5905168 C23.049225,13.6674757 23.177925,12.6995178 23.177925,11.7019148 C23.177925,11.1202417 23.134275,10.5493487 23.053725,9.99013403" id="Fill-19" fill="#FEFEFE" mask="url(#mask-2)"></path>
                    </g>
                    <path d="M40.7224067,26.1073327 L40.7224067,22.5050357 C40.7224067,22.0116248 40.625438,21.5442759 40.4333047,21.1056394 C40.2416224,20.6665611 39.9791305,20.2831407 39.6449268,19.9562615 C39.3120762,19.6307075 38.9214954,19.3731797 38.4727334,19.1850033 C38.0239714,18.9963852 37.5481484,18.902297 37.0434603,18.902297 C36.5396742,18.902297 36.0629491,18.9963852 35.6146381,19.1850033 C35.1663271,19.3731797 34.7748443,19.6307075 34.4419937,19.9562615 C34.1091431,20.2831407 33.8462001,20.6665611 33.6536158,21.1056394 C33.4614825,21.5442759 33.3654159,22.0116248 33.3654159,22.5050357 L33.3654159,26.1073327 L40.7224067,26.1073327 Z M44.4,33.3 L40.7224067,33.3 L40.7224067,29.697703 L33.3654159,29.697703 L33.3654159,33.3 L29.7,33.3 L29.7,22.5050357 C29.7,21.5089376 29.8921333,20.5746816 30.2763998,19.6996172 C30.6606664,18.8249945 31.1847483,18.0612457 31.8463903,17.4092542 C32.5089344,16.7554958 33.2864879,16.240882 34.1790507,15.8649709 C35.0720646,15.4886181 36.0268677,15.3 37.0434603,15.3 C38.0605038,15.3 39.015307,15.4886181 39.9078698,15.8649709 C40.8008836,16.240882 41.5806922,16.7554958 42.2472954,17.4092542 C42.9129967,18.0612457 43.4388826,18.8249945 43.8236002,19.6996172 C44.2083177,20.5746816 44.4,21.5089376 44.4,22.5050357 L44.4,33.3 Z" id="Fill-22" fill="#FEFEFE"></path>
                    <polygon id="Fill-24" fill="#FEFEFE" points="61.8 33.3 57.8649966 33.3 50.7783825 21.4501877 50.7783825 33.3 47.1 33.3 47.1 15.3 51.0341014 15.3 58.1220685 27.1621807 58.1220685 15.3 61.8 15.3"></polygon>
                    <path d="M77.0279265,24.3002209 C77.0279265,23.5550247 76.8852037,22.8557682 76.599758,22.2037768 C76.3134119,21.5513436 75.9212619,20.9797467 75.4224074,20.4903114 C74.9235528,20.0008761 74.3387044,19.6139218 73.6696631,19.3294486 C73.0001715,19.0445336 72.285657,18.902297 71.5265697,18.902297 L69.6972864,18.902297 L69.6972864,29.697703 L71.5265697,29.697703 C72.285657,29.697703 73.0001715,29.5567916 73.6696631,29.2771774 C74.3387044,28.9966797 74.9235528,28.6114923 75.4224074,28.1216153 C75.9212619,27.6326217 76.3134119,27.0588162 76.599758,26.4028491 C76.8852037,25.7451152 77.0279265,25.0445336 77.0279265,24.3002209 M80.7,24.3002209 C80.7,25.128462 80.5914946,25.9253405 80.3740337,26.6908562 C80.1561225,27.4568137 79.8472649,28.1728558 79.4461103,28.8376574 C79.0449556,29.502459 78.5672619,30.1089524 78.0130291,30.6575793 C77.4587963,31.2057646 76.8401807,31.6766473 76.1576325,32.0702275 C75.4755345,32.463366 74.7443614,32.7659501 73.9636631,32.979305 C73.183415,33.1926599 72.3712006,33.3 71.5265697,33.3 L66,33.3 L66,15.3 L71.5265697,15.3 C72.3712006,15.3 73.183415,15.4064566 73.9636631,15.6198115 C74.7443614,15.8331665 75.4755345,16.136634 76.1576325,16.5297725 C76.8401807,16.9233527 77.4587963,17.3937937 78.0130291,17.9415372 C78.5672619,18.4901642 79.0449556,19.0970993 79.4461103,19.7623426 C79.8472649,20.427586 80.1561225,21.1427446 80.3740337,21.9082603 C80.5914946,22.673776 80.7,23.4719797 80.7,24.3002209" id="Fill-26" fill="#FEFEFE"></path>
                    <g id="Group-30" transform="translate(82.500000, 14.700000)">
                        <mask id="mask-4" fill="white">
                            <use xlink:href="#path-3"></use>
                        </mask>
                        <g id="Clip-29"></g>
                        <path d="M11.0466491,11.3343949 L11.0466491,7.61819241 C11.0466491,7.10917975 10.9513218,6.62705316 10.7611127,6.17454684 C10.5717945,5.72158481 10.31254,5.32604051 9.98245818,4.98882532 C9.65371273,4.65297722 9.26794909,4.38730633 8.82472182,4.19317975 C8.38194,3.99859747 7.91154,3.90153418 7.41352182,3.90153418 C6.91594909,3.90153418 6.44510364,3.99859747 6.00187636,4.19317975 C5.55909455,4.38730633 5.17244,4.65297722 4.84369455,4.98882532 C4.51494909,5.32604051 4.25524909,5.72158481 4.06504,6.17454684 C3.87527636,6.62705316 3.78039455,7.10917975 3.78039455,7.61819241 L3.78039455,11.3343949 L11.0466491,11.3343949 Z M14.6793309,18.7544962 L11.0466491,18.7544962 L11.0466491,15.0382937 L3.78039455,15.0382937 L3.78039455,18.7544962 L0.160185455,18.7544962 L0.160185455,7.61819241 C0.160185455,6.59059747 0.349949091,5.6268 0.729476364,4.72406582 C1.10944909,3.82178734 1.62662182,3.03388861 2.28010364,2.36128101 C2.93447636,1.68685063 3.70244,1.15596456 4.58399455,0.768167089 C5.46599455,0.379913924 6.40946727,0.185331646 7.41352182,0.185331646 C8.41757636,0.185331646 9.36060364,0.379913924 10.2421582,0.768167089 C11.1241582,1.15596456 11.8943491,1.68685063 12.5527309,2.36128101 C13.2106673,3.03388861 13.7296218,3.82178734 14.1095945,4.72406582 C14.4895673,5.6268 14.6793309,6.59059747 14.6793309,7.61819241 L14.6793309,18.7544962 Z" id="Fill-28" fill="#FEFEFE" mask="url(#mask-4)"></path>
                    </g>
                    <path d="M35.0260314,5.9411114 L35.0260314,8.82287111 L36.4520627,8.82287111 C36.6477925,8.82287111 36.8316043,8.78582454 37.0039566,8.70987908 C37.1758504,8.63393362 37.3275754,8.53159249 37.4563812,8.40100334 C37.5856454,8.27087728 37.6874065,8.11713404 37.762123,7.94208901 C37.8368396,7.76611783 37.8739686,7.57949576 37.8739686,7.38222279 C37.8739686,7.18448675 37.8368396,6.9974016 37.762123,6.82235657 C37.6874065,6.64638539 37.5856454,6.4935683 37.4563812,6.36297916 C37.3275754,6.23239002 37.1758504,6.12912272 37.0039566,6.05364034 C36.8316043,5.97815796 36.6477925,5.9411114 36.4520627,5.9411114 L35.0260314,5.9411114 Z M35.0260314,11.7 L33.6,11.7 L33.6,4.5 L36.4520627,4.5 C36.7142581,4.5 36.9659107,4.53473116 37.2079373,4.60280422 C37.4495054,4.67180345 37.6759469,4.76905068 37.886345,4.89361976 C38.0967431,5.01957808 38.2888058,5.17007975 38.4629916,5.34605094 C38.6371773,5.52202213 38.7856936,5.71697968 38.9099156,5.93046051 C39.0345959,6.14486751 39.1303981,6.37455621 39.1986972,6.61860046 C39.266538,6.86264471 39.3,7.11733985 39.3,7.38222279 C39.3,7.62950862 39.2697467,7.87077438 39.2083233,8.1050939 C39.1464415,8.33941343 39.0593486,8.56169282 38.9452111,8.77239516 C38.8306152,8.98356059 38.6908082,9.17759197 38.5253317,9.35541549 C38.3589385,9.53277592 38.1732931,9.68651917 37.9683957,9.81710831 L38.758649,11.7 L37.2427744,11.7 L36.6212063,10.2491639 L35.0260314,10.2584255 L35.0260314,11.7 Z" id="Fill-31" fill="#FEFEFE"></path>
                    <mask id="mask-6" fill="white">
                        <use xlink:href="#path-5"></use>
                    </mask>
                    <g id="Clip-34"></g>
                    <polygon id="Fill-33" fill="#FEFEFE" mask="url(#mask-6)" points="44.1 11.7 45.6 11.7 45.6 4.5 44.1 4.5"></polygon>
                    <polygon id="Fill-35" fill="#FEFEFE" mask="url(#mask-6)" points="56.4 11.7 54.8741637 11.7 52.1259167 6.96081811 52.1259167 11.7 50.7 11.7 50.7 4.5 52.2258363 4.5 54.9740833 9.24427579 54.9740833 4.5 56.4 4.5"></polygon>
                    <polygon id="Fill-36" fill="#FEFEFE" mask="url(#mask-6)" points="64.4631875 11.7 63.0418543 11.7 63.0418543 5.9411114 60.9 5.9411114 60.9 4.5 66.6 4.5 66.6 5.9411114 64.4631875 5.9411114"></polygon>
                    <polygon id="Fill-37" fill="#FEFEFE" mask="url(#mask-6)" points="75.3 11.7 70.8 11.7 70.8 4.5 75.3 4.5 75.3 5.9411114 72.1135204 5.9411114 72.1135204 7.38268588 74.2702102 7.38268588 74.2702102 8.82287111 72.1135204 8.82287111 72.1135204 10.2588886 75.3 10.2588886"></polygon>
                    <path d="M82.1260314,5.9411114 L82.1260314,8.82287111 L83.5520627,8.82287111 C83.7477925,8.82287111 83.931146,8.78582454 84.1039566,8.70987908 C84.2758504,8.63393362 84.427117,8.53159249 84.5563812,8.40100334 C84.6856454,8.27087728 84.7874065,8.11713404 84.862123,7.94208901 C84.9363812,7.76611783 84.9739686,7.57949576 84.9739686,7.38222279 C84.9739686,7.18448675 84.9363812,6.9974016 84.862123,6.82235657 C84.7874065,6.64638539 84.6856454,6.4935683 84.5563812,6.36297916 C84.427117,6.23239002 84.2758504,6.12912272 84.1039566,6.05364034 C83.931146,5.97815796 83.7477925,5.9411114 83.5520627,5.9411114 L82.1260314,5.9411114 Z M82.1260314,11.7 L80.7,11.7 L80.7,4.5 L83.5520627,4.5 C83.8142581,4.5 84.0654524,4.53473116 84.3079373,4.60280422 C84.5495054,4.67180345 84.7754885,4.76905068 84.9858866,4.89361976 C85.1962847,5.01957808 85.3883474,5.17007975 85.5625332,5.34605094 C85.7367189,5.52202213 85.8856936,5.71697968 86.0099156,5.93046051 C86.1341375,6.14486751 86.2303981,6.37455621 86.2986972,6.61860046 C86.3660796,6.86264471 86.4,7.11733985 86.4,7.38222279 C86.4,7.62950862 86.3697467,7.87077438 86.3083233,8.1050939 C86.2464415,8.33941343 86.1593486,8.56169282 86.0447527,8.77239516 C85.9306152,8.98356059 85.7903498,9.17759197 85.6248733,9.35541549 C85.4589385,9.53277592 85.2732931,9.68651917 85.0683957,9.81710831 L85.858649,11.7 L84.342316,11.7 L83.7207479,10.2491639 L82.1260314,10.2584255 L82.1260314,11.7 Z" id="Fill-38" fill="#FEFEFE" mask="url(#mask-6)"></path>
                </g>
            </g>
        </g>
    </g>
</svg>